<?xml version="1.0" encoding="utf-8"?>
<!-- Generator: Adobe Illustrator 26.5.0, SVG Export Plug-In . SVG Version: 6.00 Build 0)  -->
<svg version="1.1" id="Camada_1" xmlns="http://www.w3.org/2000/svg" xmlns:xlink="http://www.w3.org/1999/xlink" x="0px" y="0px"
	 viewBox="0 0 250 90" style="enable-background:new 0 0 250 90;" xml:space="preserve">
<style type="text/css">
	.st0{fill:#FFFFFF;}
</style>
<g>
	<g>
		<g>
			<g>
				<g>
					<g>
						<path class="st0" d="M9.7,18.4c2.5-2.5,5.5-3.7,9.2-3.7s6.8,1.2,9.2,3.7c2.5,2.5,3.7,5.6,3.7,9.3s-1.2,6.8-3.7,9.3
							c-2.5,2.5-5.5,3.7-9.2,3.7s-6.8-1.2-9.2-3.7C7.2,34.5,6,31.4,6,27.7S7.2,20.9,9.7,18.4z M13.3,33.6c1.5,1.6,3.4,2.4,5.6,2.4
							s4.1-0.8,5.6-2.4c1.5-1.6,2.2-3.5,2.2-5.8s-0.7-4.2-2.2-5.8c-1.5-1.6-3.4-2.4-5.6-2.4s-4.1,0.8-5.6,2.4
							c-1.5,1.6-2.2,3.5-2.2,5.8S11.8,32,13.3,33.6z"/>
						<path class="st0" d="M56.8,8.3v9.1c-2.2-1.8-4.7-2.7-7.6-2.7c-2.3,0-4.3,0.5-6.1,1.6c-1.9,1.1-3.5,2.7-4.7,4.7
							c-1.2,2-1.8,4.2-1.8,6.7s0.6,4.7,1.7,6.7s2.7,3.6,4.6,4.7c1.8,1.1,3.9,1.6,6.3,1.6c3,0,5.6-0.9,7.7-2.8v2.3h4.9V8.3H56.8z
							 M56.8,32.4c-1.8,2.4-4.1,3.6-6.9,3.6c-2.4,0-4.3-0.8-5.9-2.4c-1.6-1.6-2.4-3.5-2.4-5.8c0-2.3,0.8-4.2,2.3-5.8
							c1.5-1.6,3.4-2.4,5.8-2.4c2.9,0,5.3,1.2,7.1,3.6V32.4z"/>
						<path class="st0" d="M72.4,18.4c2.5-2.5,5.5-3.7,9.2-3.7s6.8,1.2,9.2,3.7c2.5,2.5,3.7,5.6,3.7,9.3s-1.2,6.8-3.7,9.3
							c-2.5,2.5-5.5,3.7-9.2,3.7s-6.8-1.2-9.2-3.7c-2.5-2.5-3.7-5.6-3.7-9.3S69.9,20.9,72.4,18.4z M76,33.6c1.5,1.6,3.4,2.4,5.6,2.4
							c2.3,0,4.1-0.8,5.6-2.4c1.5-1.6,2.2-3.5,2.2-5.8s-0.7-4.2-2.2-5.8c-1.5-1.6-3.4-2.4-5.6-2.4c-2.3,0-4.1,0.8-5.6,2.4
							c-1.5,1.6-2.2,3.5-2.2,5.8S74.5,32,76,33.6z"/>
						<path class="st0" d="M106.3,17.6c2-1.9,4.5-2.9,7.5-2.9c3.8,0,6.8,1.5,9.1,4.4c1.6,2.1,2.4,5,2.4,8.9v12.2h-5V27.7
							c0-2.6-0.5-4.5-1.5-5.8c-1.3-1.6-3-2.4-5.1-2.4c-2.8,0-5.2,1.2-7.2,3.6v17.2h-5v-25h4.9V17.6z"/>
						<path class="st0" d="M156.6,18.4c2.5-2.5,5.5-3.7,9.2-3.7c3.7,0,6.8,1.2,9.2,3.7c2.5,2.5,3.7,5.6,3.7,9.3s-1.2,6.8-3.7,9.3
							c-2.5,2.5-5.5,3.7-9.2,3.7c-3.7,0-6.8-1.2-9.2-3.7c-2.5-2.5-3.7-5.6-3.7-9.3S154.1,20.9,156.6,18.4z M160.2,33.6
							c1.5,1.6,3.4,2.4,5.6,2.4s4.1-0.8,5.6-2.4c1.5-1.6,2.2-3.5,2.2-5.8s-0.7-4.2-2.2-5.8c-1.5-1.6-3.4-2.4-5.6-2.4
							s-4.1,0.8-5.6,2.4c-1.5,1.6-2.2,3.5-2.2,5.8S158.7,32,160.2,33.6z"/>
						<path class="st0" d="M141,8.3h-5v6.9h-6.4v4.5h6.4v11.4c0,2.9,0.7,5.2,2,6.6c1.7,1.9,4.1,2.9,7.1,2.9c1.6,0,2.9-0.2,3.9-0.5
							l-1-4.6c-0.7,0.2-1.7,0.3-2.8,0.3c-1.6,0-2.7-0.4-3.5-1.3c-0.5-0.6-0.7-1.6-0.7-3.2V19.8h8v-4.5h-8V8.3z"/>
					</g>
					<g>
						<path class="st0" d="M19.8,54.3c-0.5-0.1-1.2-0.2-2-0.2c-1.3,0-2.5,0.4-3.8,1.2c-1.3,0.8-2.2,1.8-2.9,3v16.5H6v-25h4.9v2.9
							c0.7-1,1.7-1.8,3-2.4s2.8-1,4.5-1c0.7,0,1.4,0.1,2,0.2L19.8,54.3z"/>
						<path class="st0" d="M30.6,63.3c0.1,2.1,1,3.9,2.5,5.4c1.5,1.5,3.4,2.2,5.5,2.2c2.7,0,5.1-1.1,7.2-3.4l3.3,3.1
							c-1,1.3-2.4,2.5-4.2,3.3c-1.8,0.9-3.9,1.3-6.3,1.3c-3.6,0-6.7-1.2-9.2-3.7c-2.5-2.5-3.7-5.6-3.7-9.3c0-3.8,1.1-6.9,3.4-9.3
							c2.3-2.5,5.2-3.7,8.7-3.7c3.5,0,6.3,1.2,8.6,3.7c2.3,2.5,3.4,5.6,3.4,9.3c0,0.4,0,0.7-0.1,1.1H30.6z M33.6,55.2
							c-1.3,1-2.2,2.3-2.6,3.9h13.6c-0.4-1.6-1.2-2.8-2.4-3.9c-1.3-1-2.6-1.5-4.2-1.5C36.4,53.7,34.9,54.2,33.6,55.2z"/>
						<path class="st0" d="M59.4,68.1c2.4,1.8,4.8,2.8,7.4,2.8c1.2,0,2.2-0.3,3.1-0.9c0.9-0.6,1.3-1.3,1.3-2.3c0-0.5-0.1-1-0.4-1.4
							c-0.3-0.4-0.7-0.7-1.3-1c-0.6-0.3-1.2-0.5-1.7-0.6s-1.3-0.4-2.2-0.6c-0.9-0.2-1.6-0.4-2.2-0.6c-3.8-1.3-5.7-3.4-5.7-6.4
							c0-2.5,0.9-4.4,2.8-5.8c1.8-1.3,4-2,6.5-2c3.3,0,6,0.9,8.3,2.8l-2.6,3.6c-1.7-1.3-3.5-2-5.4-2c-1.3,0-2.3,0.3-3.2,0.8
							c-0.9,0.6-1.3,1.3-1.3,2.3c0,0.8,0.4,1.4,1.1,1.8c0.7,0.4,1.8,0.8,3.4,1.2c1.2,0.3,2.2,0.6,3.1,1c0.9,0.3,1.8,0.8,2.8,1.4
							c1,0.6,1.8,1.4,2.3,2.3c0.5,0.9,0.8,2,0.8,3.2c0,2.3-0.9,4.1-2.7,5.5c-1.8,1.4-4,2.1-6.6,2.1c-3.9,0-7.3-1.2-10.1-3.5
							L59.4,68.1z"/>
						<path class="st0" d="M87.6,71.1c-1.5-1.9-2.3-4.7-2.3-8.5V49.8h5v13.5c0,2.2,0.5,3.9,1.4,5c1.2,1.5,2.8,2.2,4.8,2.2
							c2.7,0,5-1.2,7-3.6V49.8h5v25h-4.9v-2.3c-0.7,0.7-1.7,1.4-3,1.9c-1.3,0.6-2.7,0.9-4.3,0.9C92.7,75.3,89.8,73.9,87.6,71.1z"/>
						<rect x="120.1" y="42.9" class="st0" width="5" height="31.9"/>
						<path class="st0" d="M161.8,68.1c2.4,1.8,4.8,2.8,7.4,2.8c1.2,0,2.2-0.3,3.1-0.9c0.9-0.6,1.3-1.3,1.3-2.3c0-0.5-0.1-1-0.4-1.4
							c-0.3-0.4-0.7-0.7-1.3-1c-0.6-0.3-1.2-0.5-1.7-0.6s-1.3-0.4-2.2-0.6c-0.9-0.2-1.6-0.4-2.2-0.6c-3.8-1.3-5.7-3.4-5.7-6.4
							c0-2.5,0.9-4.4,2.8-5.8c1.8-1.3,4-2,6.5-2c3.3,0,6,0.9,8.3,2.8l-2.6,3.6c-1.7-1.3-3.5-2-5.4-2c-1.3,0-2.3,0.3-3.2,0.8
							c-0.9,0.6-1.3,1.3-1.3,2.3c0,0.8,0.4,1.4,1.1,1.8c0.7,0.4,1.8,0.8,3.4,1.2c1.2,0.3,2.2,0.6,3.1,1s1.8,0.8,2.8,1.4
							c1,0.6,1.8,1.4,2.3,2.3c0.5,0.9,0.8,2,0.8,3.2c0,2.3-0.9,4.1-2.7,5.5c-1.8,1.4-4,2.1-6.6,2.1c-3.9,0-7.3-1.2-10.1-3.5
							L161.8,68.1z"/>
						<path class="st0" d="M144,42.9h-5v6.9h-6.4v4.5h6.4v11.4c0,2.9,0.7,5.2,2,6.6c1.7,1.9,4.1,2.9,7.1,2.9c1.6,0,2.9-0.2,3.9-0.5
							l-1-4.6c-0.7,0.2-1.7,0.3-2.8,0.3c-1.6,0-2.7-0.4-3.5-1.3c-0.5-0.6-0.7-1.6-0.7-3.2V54.3h8v-4.5h-8V42.9z"/>
					</g>
				</g>
			</g>
		</g>
		<g>
			<path class="st0" d="M241.9,44.9c-4.9-3.1-9.8-6.2-14.7-9.3c-4.3-2.7-8.6-5.5-13-8.2c-1-0.6-1.9-1.3-2.9-1.8
				c-0.2-0.1-0.3-0.2-0.5-0.3c-8.6-5.4-17.3-10.9-25.9-16.3c-0.3-0.2-0.7-0.4-1-0.6c9.2,10.6,13.7,22.9,13.5,36.9
				c-0.2,14-5,26.2-14.6,36.5c0.3-0.1,0.5-0.2,0.7-0.4c0.5-0.1,0.8-0.5,1.2-0.7c2.2-1.2,4.3-2.5,6.4-3.7c3.3-1.9,6.5-3.8,9.8-5.7
				c3.7-2.1,7.4-4.3,11.1-6.4c4.1-2.4,8.2-4.8,12.3-7.1c3-1.8,6.1-3.5,9.1-5.3c2.9-1.7,5.9-3.4,8.8-5.1c0.6-0.3,1.2-0.7,1.8-1
				C243.2,45.8,242.6,45.3,241.9,44.9z"/>
		</g>
	</g>
</g>
</svg>
